<mxfile host="www.draw.io" modified="2020-02-04T18:05:23.841Z" agent="Mozilla/5.0 (Windows NT 10.0; Win64; x64; rv:68.0) Gecko/20100101 Firefox/68.0" etag="_zLOSjtfoB7p4SskrQ1e" version="12.6.5" type="github">
  <diagram id="Np9p8wMwJFWlm5wq7k0r" name="Page-1">
    <mxGraphModel dx="1182" dy="761" grid="1" gridSize="10" guides="1" tooltips="1" connect="1" arrows="1" fold="1" page="1" pageScale="1" pageWidth="850" pageHeight="1100" math="0" shadow="0">
      <root>
        <mxCell id="0"/>
        <mxCell id="1" parent="0"/>
      </root>
    </mxGraphModel>
  </diagram>
</mxfile>
